<?xml version="1.0" encoding="utf-8"?>
<!-- Generator: Adobe Illustrator 16.0.0, SVG Export Plug-In . SVG Version: 6.00 Build 0)  -->
<!DOCTYPE svg PUBLIC "-//W3C//DTD SVG 1.1//EN" "http://www.w3.org/Graphics/SVG/1.1/DTD/svg11.dtd">
<svg version="1.1" id="Layer_1" xmlns="http://www.w3.org/2000/svg" xmlns:xlink="http://www.w3.org/1999/xlink" x="0px" y="0px"
	 width="1044.866px" height="97.121px" viewBox="128.634 558.379 1044.866 97.121"
	 enable-background="new 128.634 558.379 1044.866 97.121" xml:space="preserve">
<desc>Created with Fabric.js 3.6.3</desc>
<g id="text-logo-path" transform="matrix(1.9699870022450665 0 0 1.9699870022450665 644.5242469024587 796.3812919070122)">
	<path fill="#DB4B4B" d="M-255.464-75.064h-3.09v-45.75h23.37v2.69h-20.28v16.81h18.56v2.62h-18.56V-75.064z M-220.994-75.064h-2.94
		v-41.53h2.94V-75.064z M-202.714-75.064h-2.94v-41.78h1.41l27.25,31.34c0.98,1.106,1.887,2.206,2.72,3.3
		c0.833,1.093,1.27,1.66,1.31,1.7l0,0c-0.08-1.02-0.12-3.03-0.12-6.03l0,0v-30.06h2.93v41.78h-1.4l-27.75-31.88l-3.53-4.28
		c0.08,0.854,0.12,2.863,0.12,6.03l0,0V-75.064z M-134.744-75.064h-20.03v-41.53h19.37v2.56h-16.43v15.09h14.84v2.5h-14.84v18.69
		h17.09V-75.064z M-127.864-77.624L-127.864-77.624l1.53-2.25c2.893,1.954,5.967,2.93,9.22,2.93l0,0c0.02,0,0.04,0.013,0.06,0.04
		l0,0c3.207,0.02,5.717-0.66,7.53-2.04c1.813-1.373,2.72-3.3,2.72-5.78l0,0c0-2.12-0.917-4.086-2.75-5.9l0,0
		c-1.274-1.274-2.987-2.654-5.14-4.14c-2.16-1.493-3.667-2.573-4.52-3.24c-0.853-0.667-1.863-1.55-3.03-2.65l0,0
		c-2.167-2.166-3.25-4.683-3.25-7.55c0-2.867,1.01-5.113,3.03-6.74c2.02-1.62,4.827-2.43,8.42-2.43c3.593,0,6.82,0.706,9.68,2.12
		l0,0l-1.1,2.38c-2.647-1.293-5.696-1.94-9.15-1.94l0,0c-2.313,0-4.197,0.557-5.65,1.67c-1.447,1.113-2.17,2.67-2.17,4.67l0,0
		c0,2.314,0.96,4.387,2.88,6.22l0,0c1.373,1.313,3.137,2.703,5.29,4.17c2.16,1.473,3.647,2.533,4.46,3.18
		c0.813,0.64,1.793,1.513,2.94,2.62l0,0c2.08,2.086,3.12,4.503,3.12,7.25l0,0c0,3.54-1.183,6.217-3.55,8.03
		c-2.36,1.813-5.667,2.72-9.92,2.72C-121.461-74.284-125.011-75.397-127.864-77.624z M-96.834-77.624L-96.834-77.624l1.53-2.25
		c2.894,1.954,5.966,2.93,9.22,2.93l0,0c0.02,0,0.04,0.013,0.06,0.04l0,0c3.207,0.02,5.717-0.66,7.53-2.04
		c1.813-1.373,2.72-3.3,2.72-5.78l0,0c0-2.12-0.917-4.086-2.75-5.9l0,0c-1.274-1.274-2.987-2.654-5.14-4.14
		c-2.16-1.493-3.667-2.573-4.52-3.24c-0.854-0.667-1.863-1.55-3.03-2.65l0,0c-2.167-2.166-3.25-4.683-3.25-7.55
		c0-2.867,1.01-5.113,3.03-6.74c2.02-1.62,4.826-2.43,8.42-2.43c3.6,0,6.827,0.706,9.68,2.12l0,0l-1.1,2.38
		c-2.647-1.293-5.696-1.94-9.15-1.94l0,0c-2.313,0-4.193,0.557-5.64,1.67c-1.453,1.113-2.18,2.67-2.18,4.67l0,0
		c0,2.314,0.96,4.387,2.88,6.22l0,0c1.373,1.313,3.14,2.703,5.3,4.17c2.153,1.473,3.637,2.533,4.45,3.18
		c0.813,0.64,1.794,1.513,2.94,2.62l0,0c2.08,2.086,3.12,4.503,3.12,7.25l0,0c0,3.54-1.183,6.217-3.55,8.03
		c-2.36,1.813-5.667,2.72-9.92,2.72C-90.43-74.284-93.981-75.397-96.834-77.624z M-34.054-75.064h-3.1v-45.75h3.1V-75.064z
		 M-15.024-75.064h-2.94v-41.78h1.41l27.25,31.34c0.98,1.106,1.887,2.206,2.72,3.3c0.834,1.093,1.27,1.66,1.311,1.7l0,0
		c-0.087-1.02-0.131-3.03-0.131-6.03l0,0v-30.06h2.941v41.78h-1.4l-27.75-31.88l-3.54-4.28c0.087,0.854,0.13,2.863,0.13,6.03l0,0
		V-75.064z M40.317-113.974H26.256v-2.62h31.03v2.62h-14.09v38.91h-2.879V-113.974z M86.006-75.064h-20.03v-41.53h19.37v2.56h-16.43
		v15.09h14.841v2.5H68.916v18.69h17.09V-75.064z M100.696-75.064h-2.941v-41.34c3.667-0.293,6.78-0.44,9.34-0.44l0,0
		c3.92,0,7.16,1.01,9.72,3.03c2.567,2.02,3.85,4.907,3.85,8.66l0,0c0,2.52-0.727,4.847-2.18,6.98c-1.447,2.134-3.086,3.867-4.92,5.2
		l0,0c5.086,6.753,8.223,10.787,9.41,12.1l0,0c2.44,2.52,5.087,3.946,7.94,4.28l0,0l-0.07,1.97c-2.393-0.04-4.334-0.39-5.82-1.05
		c-1.493-0.653-2.98-1.774-4.46-3.36c-1.479-1.58-4.706-5.83-9.679-12.75l0,0c-3.46,0-6.857-0.104-10.19-0.31l0,0V-75.064z
		 M100.696-114.034v19.5c3.06,0.227,5.913,0.34,8.56,0.34l0,0c1.667,0,3.463-1.107,5.389-3.32c1.927-2.22,2.89-4.804,2.89-7.75
		c0-2.953-1.003-5.194-3.01-6.72c-2.013-1.533-4.623-2.3-7.829-2.3l0,0C104.989-114.284,102.989-114.201,100.696-114.034
		L100.696-114.034z M139.596-75.064h-2.931v-41.53h2.931V-75.064z M158.396-80.644c-4.006-4.133-6.01-9.197-6.01-15.19
		c0-5.987,2.004-11.054,6.01-15.2c4.013-4.147,8.983-6.22,14.91-6.22s10.893,2.073,14.899,6.22c4.013,4.147,6.02,9.213,6.02,15.2
		c0,5.993-2.007,11.057-6.02,15.19c-4.006,4.14-8.973,6.21-14.899,6.21S162.409-76.504,158.396-80.644z M160.536-109.194
		c-3.393,3.627-5.089,8.077-5.089,13.35c0,5.267,1.696,9.704,5.089,13.31c3.401,3.607,7.667,5.41,12.8,5.41
		c5.134,0,9.387-1.803,12.76-5.41c3.38-3.606,5.07-8.043,5.07-13.31c0-5.273-1.69-9.723-5.07-13.35
		c-3.373-3.62-7.626-5.43-12.76-5.43C168.202-114.624,163.936-112.814,160.536-109.194z M209.976-75.064h-2.94v-41.34
		c3.666-0.293,6.783-0.44,9.35-0.44l0,0c3.913,0,7.149,1.01,9.709,3.03c2.567,2.02,3.851,4.907,3.851,8.66l0,0
		c0,2.52-0.724,4.847-2.17,6.98c-1.453,2.134-3.096,3.867-4.93,5.2l0,0c5.087,6.753,8.224,10.787,9.411,12.1l0,0
		c2.44,2.52,5.086,3.946,7.939,4.28l0,0l-0.06,1.97c-2.4-0.04-4.343-0.39-5.831-1.05c-1.493-0.653-2.979-1.774-4.46-3.36
		c-1.473-1.58-4.7-5.83-9.68-12.75l0,0c-3.46,0-6.857-0.104-10.19-0.31l0,0V-75.064z M209.976-114.034v19.5
		c3.061,0.227,5.914,0.34,8.56,0.34l0,0c1.667,0,3.463-1.107,5.39-3.32c1.926-2.22,2.89-4.804,2.89-7.75
		c0-2.953-1.003-5.194-3.01-6.72c-2.014-1.533-4.624-2.3-7.83-2.3l0,0C214.27-114.284,212.269-114.201,209.976-114.034
		L209.976-114.034z M241.066-77.624L241.066-77.624l1.53-2.25c2.9,1.954,5.973,2.93,9.219,2.93l0,0c0.021,0,0.044,0.013,0.07,0.04
		l0,0c3.206,0.02,5.717-0.66,7.53-2.04c1.813-1.373,2.721-3.3,2.721-5.78l0,0c0-2.12-0.917-4.086-2.75-5.9l0,0
		c-1.274-1.274-2.99-2.654-5.151-4.14c-2.153-1.493-3.656-2.573-4.51-3.24c-0.853-0.667-1.863-1.55-3.03-2.65l0,0
		c-2.166-2.166-3.25-4.683-3.25-7.55c0-2.867,1.01-5.113,3.03-6.74c2.021-1.62,4.827-2.43,8.42-2.43s6.817,0.706,9.671,2.12l0,0
		l-1.091,2.38c-2.646-1.293-5.7-1.94-9.16-1.94l0,0c-2.313,0-4.193,0.557-5.64,1.67c-1.447,1.113-2.169,2.67-2.169,4.67l0,0
		c0,2.314,0.96,4.387,2.88,6.22l0,0c1.373,1.313,3.136,2.703,5.289,4.17c2.16,1.473,3.647,2.533,4.46,3.18
		c0.806,0.64,1.783,1.513,2.93,2.62l0,0c2.087,2.086,3.13,4.503,3.13,7.25l0,0c0,3.54-1.184,6.217-3.55,8.03
		c-2.367,1.813-5.673,2.72-9.919,2.72C247.473-74.284,243.92-75.397,241.066-77.624z"/>
</g>
</svg>
